<mxfile host="Electron" agent="Mozilla/5.0 (Windows NT 10.0; Win64; x64) AppleWebKit/537.36 (KHTML, like Gecko) draw.io/25.0.2 Chrome/128.0.6613.186 Electron/32.2.5 Safari/537.36" version="25.0.2">
  <diagram name="Page-1" id="nO_T3sxtdm9hi5HvmLsk">
    <mxGraphModel dx="2261" dy="2005" grid="1" gridSize="10" guides="1" tooltips="1" connect="1" arrows="1" fold="1" page="1" pageScale="1" pageWidth="827" pageHeight="1169" math="0" shadow="0">
      <root>
        <mxCell id="0" />
        <mxCell id="1" value="Re-Training" parent="0" />
        <mxCell id="ebexnBk2ZBpHaMcOUNiZ-1" value="" style="whiteSpace=wrap;html=1;rounded=1;dashed=1;strokeWidth=3;perimeterSpacing=5;fillColor=#F2F6FC;strokeColor=#6c8ebf;fillStyle=auto;shadow=1;" parent="1" vertex="1">
          <mxGeometry x="-134.5" width="280" height="240" as="geometry" />
        </mxCell>
        <mxCell id="ebexnBk2ZBpHaMcOUNiZ-15" value="" style="whiteSpace=wrap;html=1;rounded=1;dashed=1;strokeWidth=3;perimeterSpacing=5;fillColor=#e1d5e7;strokeColor=#9673a6;fillStyle=auto;shadow=1;" parent="1" vertex="1">
          <mxGeometry x="-129.5" y="250" width="270" height="190" as="geometry" />
        </mxCell>
        <mxCell id="ebexnBk2ZBpHaMcOUNiZ-14" value="" style="whiteSpace=wrap;html=1;rounded=1;dashed=1;strokeWidth=3;perimeterSpacing=5;fillStyle=auto;shadow=1;" parent="1" vertex="1">
          <mxGeometry x="250" y="-170" width="150" height="150" as="geometry" />
        </mxCell>
        <mxCell id="J6IRnbr_bH8szmoZlVtS-3" value="" style="whiteSpace=wrap;html=1;rounded=1;dashed=1;strokeWidth=3;perimeterSpacing=5;fillColor=#d5e8d4;strokeColor=#82b366;fillStyle=auto;shadow=1;" parent="1" vertex="1">
          <mxGeometry x="160" width="280" height="440" as="geometry" />
        </mxCell>
        <mxCell id="J6IRnbr_bH8szmoZlVtS-4" style="edgeStyle=orthogonalEdgeStyle;rounded=0;orthogonalLoop=1;jettySize=auto;html=1;entryX=0.5;entryY=0;entryDx=0;entryDy=0;strokeColor=#000000;shadow=1;" parent="1" edge="1">
          <mxGeometry relative="1" as="geometry">
            <Array as="points">
              <mxPoint x="-60" y="180" />
              <mxPoint x="10" y="180" />
            </Array>
            <mxPoint x="-60.00000000000023" y="161.0000000000001" as="sourcePoint" />
          </mxGeometry>
        </mxCell>
        <mxCell id="J6IRnbr_bH8szmoZlVtS-8" value="" style="edgeStyle=orthogonalEdgeStyle;rounded=0;orthogonalLoop=1;jettySize=auto;html=1;strokeColor=#000000;shadow=1;" parent="1" edge="1">
          <mxGeometry relative="1" as="geometry">
            <mxPoint x="9.999999999999773" y="260" as="sourcePoint" />
          </mxGeometry>
        </mxCell>
        <mxCell id="J6IRnbr_bH8szmoZlVtS-12" style="edgeStyle=orthogonalEdgeStyle;rounded=0;orthogonalLoop=1;jettySize=auto;html=1;entryX=0.5;entryY=0;entryDx=0;entryDy=0;strokeColor=#000000;shadow=1;" parent="1" edge="1">
          <mxGeometry relative="1" as="geometry">
            <mxPoint x="9.999999999999773" y="350" as="sourcePoint" />
          </mxGeometry>
        </mxCell>
        <mxCell id="J6IRnbr_bH8szmoZlVtS-18" style="edgeStyle=orthogonalEdgeStyle;rounded=0;orthogonalLoop=1;jettySize=auto;html=1;entryX=0.5;entryY=0;entryDx=0;entryDy=0;" parent="1" source="J6IRnbr_bH8szmoZlVtS-16" target="J6IRnbr_bH8szmoZlVtS-17" edge="1">
          <mxGeometry relative="1" as="geometry" />
        </mxCell>
        <mxCell id="J6IRnbr_bH8szmoZlVtS-16" value="Independent&amp;nbsp;&lt;div&gt;Users&lt;/div&gt;" style="shape=parallelogram;perimeter=parallelogramPerimeter;whiteSpace=wrap;html=1;fixedSize=1;rounded=1;shadow=1;" parent="1" vertex="1">
          <mxGeometry x="240" y="10" width="120" height="60" as="geometry" />
        </mxCell>
        <mxCell id="J6IRnbr_bH8szmoZlVtS-26" style="edgeStyle=orthogonalEdgeStyle;rounded=0;orthogonalLoop=1;jettySize=auto;html=1;exitX=0.5;exitY=1;exitDx=0;exitDy=0;" parent="1" source="J6IRnbr_bH8szmoZlVtS-17" target="J6IRnbr_bH8szmoZlVtS-22" edge="1">
          <mxGeometry relative="1" as="geometry" />
        </mxCell>
        <mxCell id="J6IRnbr_bH8szmoZlVtS-17" value="Shiny Application&amp;nbsp;&lt;div&gt;for&lt;/div&gt;&lt;div&gt;Validation&lt;/div&gt;" style="whiteSpace=wrap;html=1;rounded=1;shadow=1;" parent="1" vertex="1">
          <mxGeometry x="250" y="95" width="100" height="60" as="geometry" />
        </mxCell>
        <mxCell id="VoIIV1M9Bv0qs0V1Qk0Z-40" value="" style="whiteSpace=wrap;html=1;rounded=1;dashed=1;strokeWidth=3;perimeterSpacing=5;fillColor=#ffe6cc;strokeColor=#d79b00;fillStyle=auto;shadow=1;" parent="1" vertex="1">
          <mxGeometry x="-434.5" width="280" height="440" as="geometry" />
        </mxCell>
        <mxCell id="VoIIV1M9Bv0qs0V1Qk0Z-37" value="" style="edgeStyle=orthogonalEdgeStyle;rounded=0;orthogonalLoop=1;jettySize=auto;html=1;strokeColor=#000000;shadow=1;" parent="1" source="VoIIV1M9Bv0qs0V1Qk0Z-15" target="VoIIV1M9Bv0qs0V1Qk0Z-36" edge="1">
          <mxGeometry relative="1" as="geometry" />
        </mxCell>
        <mxCell id="VoIIV1M9Bv0qs0V1Qk0Z-15" value="New Training&amp;nbsp;&lt;div&gt;Dataset&lt;/div&gt;" style="shape=parallelogram;perimeter=parallelogramPerimeter;whiteSpace=wrap;html=1;fixedSize=1;rounded=1;shadow=1;" parent="1" vertex="1">
          <mxGeometry x="-354.5" y="140" width="120" height="60" as="geometry" />
        </mxCell>
        <mxCell id="ebexnBk2ZBpHaMcOUNiZ-48" style="edgeStyle=orthogonalEdgeStyle;rounded=0;orthogonalLoop=1;jettySize=auto;html=1;" parent="1" source="VoIIV1M9Bv0qs0V1Qk0Z-16" target="VoIIV1M9Bv0qs0V1Qk0Z-15" edge="1">
          <mxGeometry relative="1" as="geometry" />
        </mxCell>
        <mxCell id="VoIIV1M9Bv0qs0V1Qk0Z-16" value="Training Dataset&lt;div&gt;of&lt;div&gt;DISCOV v1&lt;/div&gt;&lt;/div&gt;" style="shape=parallelogram;perimeter=stepPerimeter;whiteSpace=wrap;html=1;fixedSize=1;rounded=1;shadow=1;" parent="1" vertex="1">
          <mxGeometry x="-422" y="30" width="120" height="60" as="geometry" />
        </mxCell>
        <mxCell id="VoIIV1M9Bv0qs0V1Qk0Z-39" style="edgeStyle=orthogonalEdgeStyle;rounded=0;orthogonalLoop=1;jettySize=auto;html=1;entryX=0.5;entryY=0;entryDx=0;entryDy=0;strokeColor=#000000;shadow=1;" parent="1" source="VoIIV1M9Bv0qs0V1Qk0Z-36" target="VoIIV1M9Bv0qs0V1Qk0Z-38" edge="1">
          <mxGeometry relative="1" as="geometry" />
        </mxCell>
        <mxCell id="VoIIV1M9Bv0qs0V1Qk0Z-36" value="Re-training" style="whiteSpace=wrap;html=1;rounded=1;shadow=1;" parent="1" vertex="1">
          <mxGeometry x="-344.5" y="218" width="100" height="60" as="geometry" />
        </mxCell>
        <mxCell id="VoIIV1M9Bv0qs0V1Qk0Z-38" value="DISCOV v2" style="shape=parallelogram;perimeter=parallelogramPerimeter;whiteSpace=wrap;html=1;fixedSize=1;rounded=1;shadow=1;" parent="1" vertex="1">
          <mxGeometry x="-354.5" y="294" width="120" height="60" as="geometry" />
        </mxCell>
        <mxCell id="J6IRnbr_bH8szmoZlVtS-28" style="edgeStyle=orthogonalEdgeStyle;rounded=0;orthogonalLoop=1;jettySize=auto;html=1;entryX=0.5;entryY=0;entryDx=0;entryDy=0;" parent="1" source="J6IRnbr_bH8szmoZlVtS-22" target="J6IRnbr_bH8szmoZlVtS-23" edge="1">
          <mxGeometry relative="1" as="geometry" />
        </mxCell>
        <mxCell id="J6IRnbr_bH8szmoZlVtS-22" value="Validation&amp;nbsp;&lt;div&gt;Dataset&lt;/div&gt;" style="shape=parallelogram;perimeter=parallelogramPerimeter;whiteSpace=wrap;html=1;fixedSize=1;rounded=1;shadow=1;" parent="1" vertex="1">
          <mxGeometry x="240" y="180" width="120" height="60" as="geometry" />
        </mxCell>
        <mxCell id="J6IRnbr_bH8szmoZlVtS-29" style="edgeStyle=orthogonalEdgeStyle;rounded=0;orthogonalLoop=1;jettySize=auto;html=1;" parent="1" source="J6IRnbr_bH8szmoZlVtS-23" target="J6IRnbr_bH8szmoZlVtS-24" edge="1">
          <mxGeometry relative="1" as="geometry" />
        </mxCell>
        <mxCell id="J6IRnbr_bH8szmoZlVtS-23" value="Map&lt;div&gt;Validation&lt;/div&gt;" style="whiteSpace=wrap;html=1;rounded=1;shadow=1;" parent="1" vertex="1">
          <mxGeometry x="250" y="270" width="100" height="60" as="geometry" />
        </mxCell>
        <mxCell id="ebexnBk2ZBpHaMcOUNiZ-49" style="edgeStyle=orthogonalEdgeStyle;rounded=0;orthogonalLoop=1;jettySize=auto;html=1;" parent="1" source="VoIIV1M9Bv0qs0V1Qk0Z-14" target="VoIIV1M9Bv0qs0V1Qk0Z-15" edge="1">
          <mxGeometry relative="1" as="geometry" />
        </mxCell>
        <mxCell id="VoIIV1M9Bv0qs0V1Qk0Z-14" value="Training&lt;div&gt;Polygons of&amp;nbsp;&lt;/div&gt;&lt;div&gt;&lt;i&gt;Gracilaria&amp;nbsp;&lt;/i&gt;&lt;/div&gt;&lt;div&gt;&lt;i&gt;vermiculophylla&amp;nbsp; &amp;nbsp;&lt;/i&gt;&lt;/div&gt;" style="shape=parallelogram;perimeter=parallelogramPerimeter;whiteSpace=wrap;html=1;fixedSize=1;rounded=1;shadow=1;" parent="1" vertex="1">
          <mxGeometry x="-288" y="30" width="120" height="60" as="geometry" />
        </mxCell>
        <mxCell id="J6IRnbr_bH8szmoZlVtS-24" value="&amp;nbsp; &amp;nbsp;Accuracy Score&lt;div&gt;&amp;amp;&lt;/div&gt;&lt;div&gt;Confusion matrix&amp;nbsp; &amp;nbsp;&lt;/div&gt;" style="shape=parallelogram;perimeter=parallelogramPerimeter;whiteSpace=wrap;html=1;fixedSize=1;rounded=1;shadow=1;" parent="1" vertex="1">
          <mxGeometry x="240" y="350" width="120" height="60" as="geometry" />
        </mxCell>
        <mxCell id="ebexnBk2ZBpHaMcOUNiZ-57" style="edgeStyle=orthogonalEdgeStyle;rounded=0;orthogonalLoop=1;jettySize=auto;html=1;entryX=0.5;entryY=1;entryDx=0;entryDy=0;" parent="1" source="J6IRnbr_bH8szmoZlVtS-31" target="ebexnBk2ZBpHaMcOUNiZ-17" edge="1">
          <mxGeometry relative="1" as="geometry">
            <Array as="points">
              <mxPoint x="-174" y="400" />
            </Array>
          </mxGeometry>
        </mxCell>
        <mxCell id="ebexnBk2ZBpHaMcOUNiZ-60" style="edgeStyle=orthogonalEdgeStyle;rounded=0;orthogonalLoop=1;jettySize=auto;html=1;entryX=0;entryY=0.5;entryDx=0;entryDy=0;" parent="1" source="J6IRnbr_bH8szmoZlVtS-31" target="J6IRnbr_bH8szmoZlVtS-23" edge="1">
          <mxGeometry relative="1" as="geometry">
            <Array as="points">
              <mxPoint x="-294" y="450" />
              <mxPoint x="210" y="450" />
              <mxPoint x="210" y="300" />
            </Array>
          </mxGeometry>
        </mxCell>
        <mxCell id="J6IRnbr_bH8szmoZlVtS-31" value="Classification&amp;nbsp;&lt;div&gt;maps&lt;/div&gt;" style="shape=parallelogram;perimeter=parallelogramPerimeter;whiteSpace=wrap;html=1;fixedSize=1;rounded=1;shadow=1;" parent="1" vertex="1">
          <mxGeometry x="-354.5" y="370" width="120" height="60" as="geometry" />
        </mxCell>
        <mxCell id="J6IRnbr_bH8szmoZlVtS-35" value="" style="endArrow=classic;html=1;rounded=0;exitX=0.5;exitY=1;exitDx=0;exitDy=0;entryX=0.5;entryY=0;entryDx=0;entryDy=0;" parent="1" source="VoIIV1M9Bv0qs0V1Qk0Z-38" target="J6IRnbr_bH8szmoZlVtS-31" edge="1">
          <mxGeometry width="50" height="50" relative="1" as="geometry">
            <mxPoint x="-384.5" y="400" as="sourcePoint" />
            <mxPoint x="-334.5" y="350" as="targetPoint" />
          </mxGeometry>
        </mxCell>
        <mxCell id="J6IRnbr_bH8szmoZlVtS-66" value="" style="shape=parallelogram;perimeter=parallelogramPerimeter;whiteSpace=wrap;html=1;fixedSize=1;rounded=1;shadow=1;aspect=fixed;" parent="1" vertex="1">
          <mxGeometry x="259.99499999999995" y="-98.5" width="60" height="30" as="geometry" />
        </mxCell>
        <mxCell id="J6IRnbr_bH8szmoZlVtS-67" value="" style="whiteSpace=wrap;html=1;rounded=1;shadow=1;aspect=fixed;" parent="1" vertex="1">
          <mxGeometry x="269.15999999999997" y="-58.5" width="41.67" height="25" as="geometry" />
        </mxCell>
        <mxCell id="J6IRnbr_bH8szmoZlVtS-68" value="" style="rounded=0;whiteSpace=wrap;html=1;aspect=fixed;" parent="1" vertex="1">
          <mxGeometry x="259.99499999999995" y="-124.5" width="60" height="15" as="geometry" />
        </mxCell>
        <mxCell id="J6IRnbr_bH8szmoZlVtS-69" value="" style="ellipse;whiteSpace=wrap;html=1;aspect=fixed;" parent="1" vertex="1">
          <mxGeometry x="259.99499999999995" y="-162.5" width="60" height="30" as="geometry" />
        </mxCell>
        <mxCell id="J6IRnbr_bH8szmoZlVtS-70" value="Study sites" style="text;html=1;align=center;verticalAlign=middle;whiteSpace=wrap;rounded=0;" parent="1" vertex="1">
          <mxGeometry x="320" y="-162.5" width="80" height="30" as="geometry" />
        </mxCell>
        <mxCell id="J6IRnbr_bH8szmoZlVtS-71" value="Devices" style="text;html=1;align=center;verticalAlign=middle;whiteSpace=wrap;rounded=0;" parent="1" vertex="1">
          <mxGeometry x="310.83" y="-132" width="80" height="30" as="geometry" />
        </mxCell>
        <mxCell id="J6IRnbr_bH8szmoZlVtS-72" value="Input and/or Output" style="text;html=1;align=center;verticalAlign=middle;whiteSpace=wrap;rounded=0;" parent="1" vertex="1">
          <mxGeometry x="320" y="-102.5" width="80" height="30" as="geometry" />
        </mxCell>
        <mxCell id="J6IRnbr_bH8szmoZlVtS-73" value="Python or R&lt;div&gt;Code&lt;/div&gt;" style="text;html=1;align=center;verticalAlign=middle;whiteSpace=wrap;rounded=0;" parent="1" vertex="1">
          <mxGeometry x="320" y="-61" width="80" height="30" as="geometry" />
        </mxCell>
        <mxCell id="ebexnBk2ZBpHaMcOUNiZ-58" style="edgeStyle=orthogonalEdgeStyle;rounded=0;orthogonalLoop=1;jettySize=auto;html=1;entryX=0;entryY=0.5;entryDx=0;entryDy=0;" parent="1" source="ebexnBk2ZBpHaMcOUNiZ-17" target="ebexnBk2ZBpHaMcOUNiZ-19" edge="1">
          <mxGeometry relative="1" as="geometry" />
        </mxCell>
        <mxCell id="ebexnBk2ZBpHaMcOUNiZ-17" value="Cover of Red Algae" style="whiteSpace=wrap;html=1;rounded=1;shadow=1;" parent="1" vertex="1">
          <mxGeometry x="-224.5" y="271" width="100" height="60" as="geometry" />
        </mxCell>
        <mxCell id="ebexnBk2ZBpHaMcOUNiZ-71" style="edgeStyle=orthogonalEdgeStyle;rounded=0;orthogonalLoop=1;jettySize=auto;html=1;entryX=0.5;entryY=0;entryDx=0;entryDy=0;" parent="1" source="ebexnBk2ZBpHaMcOUNiZ-19" target="ebexnBk2ZBpHaMcOUNiZ-51" edge="1">
          <mxGeometry relative="1" as="geometry" />
        </mxCell>
        <mxCell id="ebexnBk2ZBpHaMcOUNiZ-19" value="&lt;span style=&quot;border: 0px solid rgb(227, 227, 227); box-sizing: border-box; --tw-border-spacing-x: 0; --tw-border-spacing-y: 0; --tw-translate-x: 0; --tw-translate-y: 0; --tw-rotate: 0; --tw-skew-x: 0; --tw-skew-y: 0; --tw-scale-x: 1; --tw-scale-y: 1; --tw-pan-x: ; --tw-pan-y: ; --tw-pinch-zoom: ; --tw-scroll-snap-strictness: proximity; --tw-gradient-from-position: ; --tw-gradient-via-position: ; --tw-gradient-to-position: ; --tw-ordinal: ; --tw-slashed-zero: ; --tw-numeric-figure: ; --tw-numeric-spacing: ; --tw-numeric-fraction: ; --tw-ring-inset: ; --tw-ring-offset-width: 0px; --tw-ring-offset-color: #fff; --tw-ring-color: rgba(69,89,164,.5); --tw-ring-offset-shadow: 0 0 #0000; --tw-ring-shadow: 0 0 #0000; --tw-shadow: 0 0 #0000; --tw-shadow-colored: 0 0 #0000; --tw-blur: ; --tw-brightness: ; --tw-contrast: ; --tw-grayscale: ; --tw-hue-rotate: ; --tw-invert: ; --tw-saturate: ; --tw-sepia: ; --tw-drop-shadow: ; --tw-backdrop-blur: ; --tw-backdrop-brightness: ; --tw-backdrop-contrast: ; --tw-backdrop-grayscale: ; --tw-backdrop-hue-rotate: ; --tw-backdrop-invert: ; --tw-backdrop-opacity: ; --tw-backdrop-saturate: ; --tw-backdrop-sepia: ; --tw-contain-size: ; --tw-contain-layout: ; --tw-contain-paint: ; --tw-contain-style: ; scrollbar-color: var(--main-surface-tertiary) transparent; color: rgb(13, 13, 13); text-align: left; background-color: rgb(255, 255, 255);&quot;&gt;&lt;font face=&quot;Helvetica&quot; style=&quot;&quot;&gt;Generalized Linear Mixed Model&lt;/font&gt;&lt;/span&gt;" style="whiteSpace=wrap;html=1;rounded=1;shadow=1;" parent="1" vertex="1">
          <mxGeometry x="-46.75" y="271" width="100" height="60" as="geometry" />
        </mxCell>
        <mxCell id="J6IRnbr_bH8szmoZlVtS-39" value="" style="whiteSpace=wrap;html=1;rounded=1;dashed=1;strokeWidth=3;perimeterSpacing=5;fillColor=#f8cecc;strokeColor=#b85450;fillStyle=auto;shadow=1;" parent="1" vertex="1">
          <mxGeometry x="-240" y="-210" width="480" height="190" as="geometry" />
        </mxCell>
        <mxCell id="ebexnBk2ZBpHaMcOUNiZ-47" style="edgeStyle=orthogonalEdgeStyle;rounded=0;orthogonalLoop=1;jettySize=auto;html=1;exitX=0.5;exitY=1;exitDx=0;exitDy=0;entryX=0.5;entryY=0;entryDx=0;entryDy=0;" parent="1" source="ebexnBk2ZBpHaMcOUNiZ-25" target="ebexnBk2ZBpHaMcOUNiZ-2" edge="1">
          <mxGeometry relative="1" as="geometry" />
        </mxCell>
        <mxCell id="ebexnBk2ZBpHaMcOUNiZ-25" value="LiDAR-derived&lt;div&gt;Digital Surface&lt;/div&gt;&lt;div&gt;Model&lt;/div&gt;" style="shape=parallelogram;perimeter=parallelogramPerimeter;whiteSpace=wrap;html=1;fixedSize=1;rounded=1;shadow=1;fillColor=#fff2cc;strokeColor=#d6b656;" parent="1" vertex="1">
          <mxGeometry x="-54.5" y="-90" width="120" height="60" as="geometry" />
        </mxCell>
        <mxCell id="ebexnBk2ZBpHaMcOUNiZ-50" style="edgeStyle=orthogonalEdgeStyle;rounded=0;orthogonalLoop=1;jettySize=auto;html=1;" parent="1" source="ebexnBk2ZBpHaMcOUNiZ-24" target="VoIIV1M9Bv0qs0V1Qk0Z-15" edge="1">
          <mxGeometry relative="1" as="geometry">
            <Array as="points">
              <mxPoint x="-157" y="-10" />
              <mxPoint x="-295" y="-10" />
            </Array>
          </mxGeometry>
        </mxCell>
        <mxCell id="ebexnBk2ZBpHaMcOUNiZ-24" value="Multispectral&lt;div&gt;Ortho-images&lt;/div&gt;" style="shape=parallelogram;perimeter=parallelogramPerimeter;whiteSpace=wrap;html=1;fixedSize=1;rounded=1;shadow=1;fillColor=#fff2cc;strokeColor=#d6b656;" parent="1" vertex="1">
          <mxGeometry x="-216.75" y="-90" width="120" height="60" as="geometry" />
        </mxCell>
        <mxCell id="ebexnBk2ZBpHaMcOUNiZ-35" style="edgeStyle=orthogonalEdgeStyle;rounded=0;orthogonalLoop=1;jettySize=auto;html=1;entryX=0.5;entryY=0;entryDx=0;entryDy=0;" parent="1" source="J6IRnbr_bH8szmoZlVtS-42" target="J6IRnbr_bH8szmoZlVtS-47" edge="1">
          <mxGeometry relative="1" as="geometry">
            <Array as="points">
              <mxPoint x="-166.75" y="-150" />
              <mxPoint x="-53.75" y="-150" />
            </Array>
          </mxGeometry>
        </mxCell>
        <mxCell id="ebexnBk2ZBpHaMcOUNiZ-36" style="edgeStyle=orthogonalEdgeStyle;rounded=0;orthogonalLoop=1;jettySize=auto;html=1;entryX=0.5;entryY=0;entryDx=0;entryDy=0;" parent="1" source="J6IRnbr_bH8szmoZlVtS-42" target="J6IRnbr_bH8szmoZlVtS-46" edge="1">
          <mxGeometry relative="1" as="geometry">
            <Array as="points">
              <mxPoint x="-166.75" y="-150" />
              <mxPoint x="58.25" y="-150" />
            </Array>
          </mxGeometry>
        </mxCell>
        <mxCell id="J6IRnbr_bH8szmoZlVtS-42" value="Notre-Dame de Trémor" style="ellipse;whiteSpace=wrap;html=1;" parent="1" vertex="1">
          <mxGeometry x="-216.75" y="-204" width="100" height="50" as="geometry" />
        </mxCell>
        <mxCell id="ebexnBk2ZBpHaMcOUNiZ-33" style="edgeStyle=orthogonalEdgeStyle;rounded=0;orthogonalLoop=1;jettySize=auto;html=1;entryX=0.5;entryY=0;entryDx=0;entryDy=0;" parent="1" source="J6IRnbr_bH8szmoZlVtS-43" target="J6IRnbr_bH8szmoZlVtS-47" edge="1">
          <mxGeometry relative="1" as="geometry" />
        </mxCell>
        <mxCell id="J6IRnbr_bH8szmoZlVtS-43" value="Pont du&amp;nbsp;&lt;div&gt;Guilly&lt;/div&gt;" style="ellipse;whiteSpace=wrap;html=1;" parent="1" vertex="1">
          <mxGeometry x="-103.75" y="-204" width="100" height="50" as="geometry" />
        </mxCell>
        <mxCell id="ebexnBk2ZBpHaMcOUNiZ-34" style="edgeStyle=orthogonalEdgeStyle;rounded=0;orthogonalLoop=1;jettySize=auto;html=1;entryX=0.5;entryY=0;entryDx=0;entryDy=0;" parent="1" source="J6IRnbr_bH8szmoZlVtS-44" target="J6IRnbr_bH8szmoZlVtS-46" edge="1">
          <mxGeometry relative="1" as="geometry" />
        </mxCell>
        <mxCell id="J6IRnbr_bH8szmoZlVtS-44" value="Marisma de&amp;nbsp;&lt;div&gt;Cudón&lt;/div&gt;" style="ellipse;whiteSpace=wrap;html=1;" parent="1" vertex="1">
          <mxGeometry x="8.25" y="-204" width="100" height="50" as="geometry" />
        </mxCell>
        <mxCell id="ebexnBk2ZBpHaMcOUNiZ-37" style="edgeStyle=orthogonalEdgeStyle;rounded=0;orthogonalLoop=1;jettySize=auto;html=1;" parent="1" source="J6IRnbr_bH8szmoZlVtS-45" target="J6IRnbr_bH8szmoZlVtS-46" edge="1">
          <mxGeometry relative="1" as="geometry">
            <Array as="points">
              <mxPoint x="171.25" y="-150" />
              <mxPoint x="58.25" y="-150" />
            </Array>
          </mxGeometry>
        </mxCell>
        <mxCell id="J6IRnbr_bH8szmoZlVtS-45" value="Marisma de&amp;nbsp;&lt;div&gt;Cortiguera&lt;/div&gt;" style="ellipse;whiteSpace=wrap;html=1;" parent="1" vertex="1">
          <mxGeometry x="121.25" y="-204" width="100" height="50" as="geometry" />
        </mxCell>
        <mxCell id="ebexnBk2ZBpHaMcOUNiZ-44" style="edgeStyle=orthogonalEdgeStyle;rounded=0;orthogonalLoop=1;jettySize=auto;html=1;entryX=0.5;entryY=0;entryDx=0;entryDy=0;" parent="1" source="J6IRnbr_bH8szmoZlVtS-46" target="ebexnBk2ZBpHaMcOUNiZ-25" edge="1">
          <mxGeometry relative="1" as="geometry">
            <Array as="points">
              <mxPoint x="58" y="-100" />
              <mxPoint x="5" y="-100" />
            </Array>
          </mxGeometry>
        </mxCell>
        <mxCell id="ebexnBk2ZBpHaMcOUNiZ-45" style="edgeStyle=orthogonalEdgeStyle;rounded=0;orthogonalLoop=1;jettySize=auto;html=1;entryX=0.5;entryY=0;entryDx=0;entryDy=0;" parent="1" source="J6IRnbr_bH8szmoZlVtS-46" target="J6IRnbr_bH8szmoZlVtS-57" edge="1">
          <mxGeometry relative="1" as="geometry">
            <Array as="points">
              <mxPoint x="58" y="-100" />
              <mxPoint x="163" y="-100" />
            </Array>
          </mxGeometry>
        </mxCell>
        <mxCell id="J6IRnbr_bH8szmoZlVtS-46" value="DJI Zenmuse L1&lt;span style=&quot;color: rgba(0, 0, 0, 0); font-family: monospace; font-size: 0px; text-align: start; text-wrap: nowrap;&quot;&gt;%3CmxGraphModel%3E%3Croot%3E%3CmxCell%20id%3D%220%22%2F%3E%3CmxCell%20id%3D%221%22%20parent%3D%220%22%2F%3E%3CmxCell%20id%3D%222%22%20value%3D%22Marisma%20de%26amp%3Bnbsp%3B%26lt%3Bdiv%26gt%3BCud%C3%B3n%26lt%3B%2Fdiv%26gt%3B%22%20style%3D%22ellipse%3BwhiteSpace%3Dwrap%3Bhtml%3D1%3B%22%20vertex%3D%221%22%20parent%3D%221%22%3E%3CmxGeometry%20x%3D%22170%22%20y%3D%22-155%22%20width%3D%22100%22%20height%3D%2250%22%20as%3D%22geometry%22%2F%3E%3C%2FmxCell%3E%3C%2Froot%3E%3C%2FmxGraphModel%3E&lt;/span&gt;" style="rounded=0;whiteSpace=wrap;html=1;" parent="1" vertex="1">
          <mxGeometry x="-1.75" y="-140" width="120" height="30" as="geometry" />
        </mxCell>
        <mxCell id="ebexnBk2ZBpHaMcOUNiZ-59" style="edgeStyle=orthogonalEdgeStyle;rounded=0;orthogonalLoop=1;jettySize=auto;html=1;entryX=0;entryY=0.5;entryDx=0;entryDy=0;exitX=0.5;exitY=1;exitDx=0;exitDy=0;" parent="1" source="J6IRnbr_bH8szmoZlVtS-57" target="J6IRnbr_bH8szmoZlVtS-17" edge="1">
          <mxGeometry relative="1" as="geometry">
            <Array as="points">
              <mxPoint x="163" y="-10" />
              <mxPoint x="210" y="-10" />
              <mxPoint x="210" y="125" />
            </Array>
          </mxGeometry>
        </mxCell>
        <mxCell id="J6IRnbr_bH8szmoZlVtS-57" value="High-resolution&lt;div&gt;RGB&lt;/div&gt;&lt;div&gt;Ortho-images&lt;/div&gt;" style="shape=parallelogram;perimeter=parallelogramPerimeter;whiteSpace=wrap;html=1;fixedSize=1;rounded=1;shadow=1;fillColor=#fff2cc;strokeColor=#d6b656;" parent="1" vertex="1">
          <mxGeometry x="103" y="-91" width="120" height="60" as="geometry" />
        </mxCell>
        <mxCell id="ebexnBk2ZBpHaMcOUNiZ-38" style="edgeStyle=orthogonalEdgeStyle;rounded=0;orthogonalLoop=1;jettySize=auto;html=1;entryX=0.5;entryY=0;entryDx=0;entryDy=0;" parent="1" source="J6IRnbr_bH8szmoZlVtS-47" target="ebexnBk2ZBpHaMcOUNiZ-24" edge="1">
          <mxGeometry relative="1" as="geometry">
            <Array as="points">
              <mxPoint x="-53.75" y="-100" />
              <mxPoint x="-156.75" y="-100" />
            </Array>
          </mxGeometry>
        </mxCell>
        <mxCell id="J6IRnbr_bH8szmoZlVtS-47" value="Micasense camera" style="rounded=0;whiteSpace=wrap;html=1;" parent="1" vertex="1">
          <mxGeometry x="-113.75" y="-140" width="120" height="30" as="geometry" />
        </mxCell>
        <mxCell id="ebexnBk2ZBpHaMcOUNiZ-11" style="edgeStyle=orthogonalEdgeStyle;rounded=0;orthogonalLoop=1;jettySize=auto;html=1;exitX=0.5;exitY=1;exitDx=0;exitDy=0;entryX=0.5;entryY=0;entryDx=0;entryDy=0;" parent="1" source="ebexnBk2ZBpHaMcOUNiZ-2" target="ebexnBk2ZBpHaMcOUNiZ-10" edge="1">
          <mxGeometry relative="1" as="geometry">
            <Array as="points">
              <mxPoint x="5.5" y="80" />
              <mxPoint x="-64.5" y="80" />
            </Array>
          </mxGeometry>
        </mxCell>
        <mxCell id="ebexnBk2ZBpHaMcOUNiZ-70" style="edgeStyle=orthogonalEdgeStyle;rounded=0;orthogonalLoop=1;jettySize=auto;html=1;entryX=0.5;entryY=0;entryDx=0;entryDy=0;" parent="1" source="ebexnBk2ZBpHaMcOUNiZ-2" target="ebexnBk2ZBpHaMcOUNiZ-4" edge="1">
          <mxGeometry relative="1" as="geometry">
            <Array as="points">
              <mxPoint x="6" y="80" />
              <mxPoint x="71" y="80" />
            </Array>
          </mxGeometry>
        </mxCell>
        <mxCell id="ebexnBk2ZBpHaMcOUNiZ-2" value="Alignment with Mean Sea Level" style="whiteSpace=wrap;html=1;rounded=1;shadow=1;" parent="1" vertex="1">
          <mxGeometry x="-44.5" y="10" width="100" height="60" as="geometry" />
        </mxCell>
        <mxCell id="ebexnBk2ZBpHaMcOUNiZ-12" style="edgeStyle=orthogonalEdgeStyle;rounded=0;orthogonalLoop=1;jettySize=auto;html=1;" parent="1" source="ebexnBk2ZBpHaMcOUNiZ-4" target="ebexnBk2ZBpHaMcOUNiZ-9" edge="1">
          <mxGeometry relative="1" as="geometry" />
        </mxCell>
        <mxCell id="ebexnBk2ZBpHaMcOUNiZ-4" value="Slope&amp;nbsp;&lt;div&gt;processing&lt;/div&gt;" style="whiteSpace=wrap;html=1;rounded=1;shadow=1;" parent="1" vertex="1">
          <mxGeometry x="20.5" y="86" width="100" height="60" as="geometry" />
        </mxCell>
        <mxCell id="ebexnBk2ZBpHaMcOUNiZ-53" style="edgeStyle=orthogonalEdgeStyle;rounded=0;orthogonalLoop=1;jettySize=auto;html=1;" parent="1" source="ebexnBk2ZBpHaMcOUNiZ-9" target="ebexnBk2ZBpHaMcOUNiZ-19" edge="1">
          <mxGeometry relative="1" as="geometry">
            <Array as="points">
              <mxPoint x="71" y="230" />
              <mxPoint x="3" y="230" />
            </Array>
          </mxGeometry>
        </mxCell>
        <mxCell id="ebexnBk2ZBpHaMcOUNiZ-9" value="Raster of the&lt;div&gt;slope of the&amp;nbsp;&lt;/div&gt;&lt;div&gt;mudflat&lt;/div&gt;" style="shape=parallelogram;perimeter=parallelogramPerimeter;whiteSpace=wrap;html=1;fixedSize=1;rounded=1;shadow=1;" parent="1" vertex="1">
          <mxGeometry x="10.5" y="159" width="120" height="60" as="geometry" />
        </mxCell>
        <mxCell id="ebexnBk2ZBpHaMcOUNiZ-52" style="edgeStyle=orthogonalEdgeStyle;rounded=0;orthogonalLoop=1;jettySize=auto;html=1;entryX=0.5;entryY=0;entryDx=0;entryDy=0;" parent="1" source="ebexnBk2ZBpHaMcOUNiZ-10" target="ebexnBk2ZBpHaMcOUNiZ-19" edge="1">
          <mxGeometry relative="1" as="geometry">
            <Array as="points">
              <mxPoint x="-64" y="230" />
              <mxPoint x="3" y="230" />
            </Array>
          </mxGeometry>
        </mxCell>
        <mxCell id="ebexnBk2ZBpHaMcOUNiZ-10" value="Mean Sea Level&lt;div&gt;Elevation&lt;/div&gt;" style="shape=parallelogram;perimeter=parallelogramPerimeter;whiteSpace=wrap;html=1;fixedSize=1;rounded=1;shadow=1;" parent="1" vertex="1">
          <mxGeometry x="-124.5" y="159" width="120" height="60" as="geometry" />
        </mxCell>
        <mxCell id="ebexnBk2ZBpHaMcOUNiZ-51" value="Spatial&lt;div&gt;distribution of&amp;nbsp;&lt;/div&gt;&lt;div&gt;&lt;i&gt;Gracilaria&amp;nbsp;&lt;/i&gt;&lt;/div&gt;&lt;div&gt;&lt;i&gt;vermiculophylla&amp;nbsp;&lt;/i&gt;&lt;span style=&quot;background-color: initial;&quot;&gt;&amp;nbsp;&lt;/span&gt;&lt;/div&gt;" style="shape=parallelogram;perimeter=parallelogramPerimeter;whiteSpace=wrap;html=1;fixedSize=1;rounded=1;shadow=1;" parent="1" vertex="1">
          <mxGeometry x="-56.75" y="347" width="120" height="60" as="geometry" />
        </mxCell>
        <mxCell id="ebexnBk2ZBpHaMcOUNiZ-62" value="&lt;font style=&quot;font-size: 13px;&quot;&gt;Fixed&amp;nbsp; &amp;nbsp; effects&lt;/font&gt;" style="text;html=1;align=left;verticalAlign=middle;whiteSpace=wrap;rounded=0;fontFamily=Helvetica;fontSize=16;labelBackgroundColor=none;glass=0;rotation=0;fillColor=none;fontColor=#000000;shadow=1;" parent="1" vertex="1">
          <mxGeometry x="-39" y="245" width="104.5" height="30" as="geometry" />
        </mxCell>
        <mxCell id="ebexnBk2ZBpHaMcOUNiZ-63" value="&lt;font style=&quot;font-size: 13px; line-height: 100%;&quot;&gt;Response&lt;/font&gt;&lt;div style=&quot;line-height: 100%;&quot;&gt;&lt;span style=&quot;font-size: 13px; line-height: 100%;&quot;&gt;variable&lt;/span&gt;&lt;/div&gt;" style="text;html=1;align=center;verticalAlign=middle;whiteSpace=wrap;rounded=0;fontFamily=Helvetica;fontSize=16;labelBackgroundColor=none;glass=0;rotation=0;fillColor=none;fontColor=#000000;shadow=1;" parent="1" vertex="1">
          <mxGeometry x="-113.75" y="286" width="56.75" height="30" as="geometry" />
        </mxCell>
        <mxCell id="ebexnBk2ZBpHaMcOUNiZ-67" style="edgeStyle=orthogonalEdgeStyle;rounded=0;orthogonalLoop=1;jettySize=auto;html=1;entryX=1;entryY=0.5;entryDx=0;entryDy=0;" parent="1" source="ebexnBk2ZBpHaMcOUNiZ-65" target="ebexnBk2ZBpHaMcOUNiZ-19" edge="1">
          <mxGeometry relative="1" as="geometry" />
        </mxCell>
        <mxCell id="ebexnBk2ZBpHaMcOUNiZ-65" value="Study&lt;div&gt;sites&lt;/div&gt;" style="ellipse;whiteSpace=wrap;html=1;" parent="1" vertex="1">
          <mxGeometry x="121.25" y="276" width="78.75" height="50" as="geometry" />
        </mxCell>
        <mxCell id="ebexnBk2ZBpHaMcOUNiZ-68" value="&lt;div style=&quot;line-height: 90%;&quot;&gt;&lt;span style=&quot;font-size: 13px; line-height: 90%;&quot;&gt;Random&lt;/span&gt;&lt;/div&gt;&lt;div style=&quot;line-height: 90%;&quot;&gt;&lt;span style=&quot;font-size: 13px; line-height: 90%;&quot;&gt;effects&lt;/span&gt;&lt;/div&gt;" style="text;html=1;align=center;verticalAlign=middle;whiteSpace=wrap;rounded=0;fontFamily=Helvetica;fontSize=16;labelBackgroundColor=none;glass=0;rotation=0;fillColor=none;fontColor=#000000;shadow=1;" parent="1" vertex="1">
          <mxGeometry x="61.5" y="286" width="56.75" height="30" as="geometry" />
        </mxCell>
        <mxCell id="ebexnBk2ZBpHaMcOUNiZ-74" value="" style="whiteSpace=wrap;html=1;rounded=1;dashed=1;strokeWidth=3;perimeterSpacing=5;fillColor=#f8cecc;strokeColor=#b85450;fillStyle=auto;shadow=1;" parent="1" vertex="1">
          <mxGeometry x="-434.49999999999994" y="-212" width="40.84" height="25" as="geometry" />
        </mxCell>
        <mxCell id="ebexnBk2ZBpHaMcOUNiZ-75" value="" style="whiteSpace=wrap;html=1;rounded=1;dashed=1;strokeWidth=3;perimeterSpacing=5;fillColor=#ffe6cc;strokeColor=#d79b00;fillStyle=auto;shadow=1;" parent="1" vertex="1">
          <mxGeometry x="-434.49999999999994" y="-171" width="40.84" height="25" as="geometry" />
        </mxCell>
        <mxCell id="ebexnBk2ZBpHaMcOUNiZ-76" value="" style="whiteSpace=wrap;html=1;rounded=1;dashed=1;strokeWidth=3;perimeterSpacing=5;fillColor=#dae8fc;strokeColor=#6c8ebf;fillStyle=auto;shadow=1;" parent="1" vertex="1">
          <mxGeometry x="-434.49999999999994" y="-129" width="40.84" height="25" as="geometry" />
        </mxCell>
        <mxCell id="ebexnBk2ZBpHaMcOUNiZ-77" value="" style="whiteSpace=wrap;html=1;rounded=1;dashed=1;strokeWidth=3;perimeterSpacing=5;fillColor=#e1d5e7;strokeColor=#9673a6;fillStyle=auto;shadow=1;" parent="1" vertex="1">
          <mxGeometry x="-434.49999999999994" y="-88" width="40.84" height="25" as="geometry" />
        </mxCell>
        <mxCell id="ebexnBk2ZBpHaMcOUNiZ-78" value="" style="whiteSpace=wrap;html=1;rounded=1;dashed=1;strokeWidth=3;perimeterSpacing=5;fillColor=#d5e8d4;strokeColor=#82b366;fillStyle=auto;shadow=1;" parent="1" vertex="1">
          <mxGeometry x="-434.49999999999994" y="-47" width="40.84" height="25" as="geometry" />
        </mxCell>
        <mxCell id="ebexnBk2ZBpHaMcOUNiZ-79" value="Drone Flights" style="text;html=1;align=center;verticalAlign=middle;whiteSpace=wrap;rounded=0;" parent="1" vertex="1">
          <mxGeometry x="-390" y="-214.5" width="76.34" height="30" as="geometry" />
        </mxCell>
        <mxCell id="ebexnBk2ZBpHaMcOUNiZ-80" value="Training of DISCOV v2" style="text;html=1;align=center;verticalAlign=middle;whiteSpace=wrap;rounded=0;" parent="1" vertex="1">
          <mxGeometry x="-391" y="-173" width="128.34" height="30" as="geometry" />
        </mxCell>
        <mxCell id="ebexnBk2ZBpHaMcOUNiZ-81" value="DSM processing" style="text;html=1;align=center;verticalAlign=middle;whiteSpace=wrap;rounded=0;" parent="1" vertex="1">
          <mxGeometry x="-393.66" y="-131" width="100" height="30" as="geometry" />
        </mxCell>
        <mxCell id="ebexnBk2ZBpHaMcOUNiZ-82" value="Habitat suitability&amp;nbsp;&lt;div&gt;modeling&lt;/div&gt;" style="text;html=1;align=left;verticalAlign=middle;whiteSpace=wrap;rounded=0;" parent="1" vertex="1">
          <mxGeometry x="-390" y="-89" width="152" height="30" as="geometry" />
        </mxCell>
        <mxCell id="ebexnBk2ZBpHaMcOUNiZ-83" value="Validation" style="text;html=1;align=center;verticalAlign=middle;whiteSpace=wrap;rounded=0;" parent="1" vertex="1">
          <mxGeometry x="-388" y="-47" width="50" height="30" as="geometry" />
        </mxCell>
      </root>
    </mxGraphModel>
  </diagram>
</mxfile>
